# Doo-Sabin rocky mesh
# 384 vertices, 386 faces
v -0.133099 -0.124512 -1.020297
v 0.126466 -0.126122 -1.077983
v 0.127578 0.131848 -1.037709
v -0.132982 0.127820 -1.058200
v -0.104372 -0.150204 0.929425
v -0.102865 0.084618 0.890367
v 0.130597 0.086229 0.912249
v 0.136775 -0.150603 0.993122
v -0.120099 -1.024501 -0.121580
v -0.133388 -1.091437 0.134598
v 0.131641 -1.049764 0.129082
v 0.137617 -1.073776 -0.130748
v 1.069191 -0.139038 -0.129961
v 1.019474 -0.132674 0.121511
v 1.037155 0.123130 0.128657
v 1.107241 0.131366 -0.126156
v 0.134196 1.094747 -0.143711
v 0.130709 1.081438 0.123953
v -0.126927 1.022901 0.113988
v -0.132109 1.082513 -0.143117
v -0.928759 0.129542 -0.128216
v -0.905775 0.120428 0.106320
v -0.990843 -0.117897 0.120205
v -0.948673 -0.111275 -0.122085
v -0.120999 -0.656051 -0.761269
v -0.113149 -0.782870 -0.653552
v 0.129388 -0.863261 -0.719258
v 0.120319 -0.730361 -0.863838
v 0.641727 -0.109506 -0.712762
v 0.854975 -0.128968 -0.710045
v 0.799683 0.116845 -0.673647
v 0.633312 0.126459 -0.734608
v 0.137810 0.789119 -0.939175
v 0.138857 0.932904 -0.774681
v -0.126111 0.878346 -0.728667
v -0.130756 0.758954 -0.894580
v -0.550587 0.120172 -0.631015
v -0.657153 0.141082 -0.547292
v -0.595526 -0.093894 -0.531957
v -0.553103 -0.116344 -0.671430
v -0.680976 -0.132526 0.810725
v -0.788275 -0.126825 0.672261
v -0.730215 0.104948 0.615522
v -0.614985 0.094602 0.713894
v -0.110893 0.655292 0.741495
v -0.115971 0.776686 0.631411
v 0.125391 0.798375 0.660096
v 0.126586 0.689444 0.800651
v 0.670039 0.108107 0.815525
v 0.750434 0.107640 0.659660
v 0.729950 -0.131931 0.661026
v 0.685228 -0.139874 0.843001
v 0.134644 -0.770266 0.924819
v 0.133198 -0.930602 0.782750
v -0.109534 -0.793736 0.667534
v -0.101509 -0.661082 0.770182
v -0.643582 -0.769337 -0.111051
v -0.784807 -0.673121 -0.117348
v -0.713852 -0.633236 0.119193
v -0.621523 -0.762473 0.129131
v 0.612625 -0.736476 0.114695
v 0.757249 -0.653388 0.114274
v 0.732801 -0.636370 -0.126384
v 0.602445 -0.726875 -0.124529
v 0.714168 0.656904 0.114215
v 0.675922 0.839163 0.119293
v 0.667780 0.840138 -0.131543
v 0.679371 0.646677 -0.120432
v -0.705169 0.848462 0.115977
v -0.843185 0.718071 0.118933
v -0.920880 0.768252 -0.135480
v -0.770079 0.924645 -0.138706
v -0.595229 -0.597706 -0.678837
v -0.640509 -0.587297 -0.602703
v -0.566832 -0.613681 -0.588930
v 0.599713 -0.605879 -0.627420
v 0.593233 -0.663372 -0.572350
v 0.665499 -0.606228 -0.580116
v 0.631319 0.654192 -0.723110
v 0.636225 0.624637 -0.620155
v 0.603024 0.709415 -0.633643
v -0.666448 0.668776 -0.725267
v -0.691544 0.779182 -0.688981
v -0.779681 0.691682 -0.692722
v -0.607935 -0.624105 0.690535
v -0.589984 -0.672222 0.610929
v -0.651255 -0.613661 0.614520
v -0.585310 0.603271 0.628629
v -0.626741 0.596832 0.562914
v -0.581687 0.663984 0.569669
v 0.605506 0.621090 0.685179
v 0.574164 0.663037 0.595208
v 0.602034 0.587117 0.583392
v 0.624666 -0.636670 0.727325
v 0.655238 -0.614898 0.632616
v 0.603795 -0.682018 0.637363
v -0.127478 -0.327337 -0.925471
v -0.125004 -0.500818 -0.849091
v 0.117890 -0.541791 -0.929295
v 0.118358 -0.343839 -0.989244
v 0.315040 -0.107866 -0.915632
v 0.447318 -0.096280 -0.757932
v 0.472913 0.135755 -0.813543
v 0.335737 0.133668 -0.963598
v 0.131471 0.360784 -1.007847
v 0.137798 0.595130 -1.045955
v -0.123860 0.560985 -0.954518
v -0.123204 0.352671 -0.992286
v -0.333170 0.122336 -0.954502
v -0.432599 0.112857 -0.754785
v -0.475926 -0.122422 -0.818925
v -0.338651 -0.123723 -0.952795
v -0.327439 -0.143970 0.934065
v -0.528621 -0.137010 0.911819
v -0.488508 0.097077 0.828587
v -0.322514 0.101989 0.923332
v -0.102773 0.299695 0.851604
v -0.103843 0.487003 0.801342
v 0.126805 0.524069 0.890396
v 0.126994 0.321271 0.927838
v 0.337439 0.087215 0.891269
v 0.533412 0.105477 0.912602
v 0.573235 -0.141079 0.996372
v 0.360325 -0.146294 1.019225
v 0.138334 -0.373330 1.046819
v 0.135266 -0.589986 1.028772
v -0.104535 -0.520357 0.875245
v -0.112136 -0.355102 0.967679
v -0.333719 -0.968530 -0.116052
v -0.506370 -0.882286 -0.112230
v -0.538340 -0.936550 0.133340
v -0.360817 -1.043035 0.134797
v -0.126380 -0.997994 0.353730
v -0.119494 -0.909356 0.534061
v 0.134241 -1.005579 0.581916
v 0.129219 -0.999455 0.356849
v 0.351128 -1.012040 0.124726
v 0.492125 -0.862933 0.117662
v 0.466556 -0.824912 -0.125288
v 0.339111 -0.977035 -0.129475
v 0.138052 -1.060784 -0.365104
v 0.134613 -0.989861 -0.567783
v -0.108231 -0.874567 -0.510856
v -0.113611 -0.965110 -0.337925
v 0.978023 -0.350573 -0.131745
v 0.863295 -0.513868 -0.129716
v 0.902596 -0.535230 0.115883
v 0.972292 -0.347932 0.117221
v 0.894805 -0.128364 0.314704
v 0.787323 -0.127409 0.478404
v 0.799806 0.105200 0.482961
v 0.868760 0.104535 0.309296
v 0.949834 0.336904 0.120156
v 0.809255 0.490960 0.112762
v 0.802395 0.485682 -0.120821
v 0.997886 0.352056 -0.125423
v 1.015724 0.121261 -0.351811
v 0.926646 0.117334 -0.540885
v 1.018661 -0.136448 -0.586599
v 1.035241 -0.137861 -0.359824
v 0.382428 1.128752 -0.141842
v 0.578314 1.009521 -0.139557
v 0.563193 0.981244 0.124210
v 0.363567 1.058465 0.125213
v 0.127211 0.990570 0.338352
v 0.124792 0.896025 0.510651
v -0.119632 0.867247 0.493179
v -0.120373 0.930901 0.319469
v -0.350079 0.978281 0.111153
v -0.546676 0.941315 0.115402
v -0.598965 1.053073 -0.138838
v -0.374273 1.083623 -0.141321
v -0.128258 1.033614 -0.362358
v -0.119769 0.934486 -0.534302
v 0.139280 1.039082 -0.593919
v 0.137038 1.067301 -0.375389
v -0.958430 0.353546 -0.133892
v -0.974846 0.564465 -0.135611
v -0.898756 0.539088 0.112605
v -0.876330 0.338586 0.102118
v -0.836739 0.109478 0.301177
v -0.797862 0.108743 0.472966
v -0.849336 -0.123791 0.500813
v -0.935325 -0.121642 0.328799
v -0.981822 -0.339541 0.125481
v -0.835760 -0.496233 0.119220
v -0.921666 -0.539458 -0.121591
v -0.966529 -0.333953 -0.124070
v -0.863495 -0.102137 -0.305112
v -0.695653 -0.086582 -0.408589
v -0.729518 0.149471 -0.429953
v -0.824305 0.137983 -0.302071
v -0.312589 -0.585748 -0.674564
v -0.478315 -0.593584 -0.693914
v -0.456012 -0.654594 -0.593403
v -0.309991 -0.724356 -0.620503
v 0.347043 -0.846087 -0.704519
v 0.495315 -0.748617 -0.624275
v 0.479973 -0.632783 -0.689500
v 0.330535 -0.689903 -0.790013
v 0.666497 -0.325386 -0.757178
v 0.635567 -0.495262 -0.703936
v 0.766280 -0.513534 -0.645844
v 0.866754 -0.356214 -0.732742
v 0.766161 0.329648 -0.665091
v 0.689675 0.495919 -0.632281
v 0.650982 0.523511 -0.770290
v 0.656135 0.338851 -0.780763
v 0.369436 0.763984 -0.903225
v 0.532697 0.699732 -0.807747
v 0.521794 0.804653 -0.686893
v 0.373790 0.925125 -0.774305
v -0.347331 0.827993 -0.689649
v -0.543405 0.823951 -0.696649
v -0.527647 0.687706 -0.779318
v -0.350029 0.722599 -0.840470
v -0.578711 0.337860 -0.632496
v -0.636107 0.520084 -0.697195
v -0.795476 0.536830 -0.675785
v -0.728671 0.349911 -0.601392
v -0.583647 -0.305804 -0.546497
v -0.661326 -0.480558 -0.603911
v -0.604801 -0.492215 -0.716919
v -0.551750 -0.318989 -0.679189
v -0.687192 -0.344030 0.818779
v -0.648907 -0.515825 0.763987
v -0.721468 -0.502386 0.642799
v -0.785694 -0.336214 0.678497
v -0.684949 0.305638 0.575831
v -0.670071 0.478023 0.575083
v -0.593017 0.479137 0.662577
v -0.579253 0.298011 0.651801
v -0.308764 0.619864 0.675773
v -0.474734 0.612101 0.658332
v -0.480570 0.708711 0.583759
v -0.319191 0.745061 0.603407
v 0.329665 0.789990 0.663751
v 0.487636 0.733020 0.629628
v 0.508374 0.661322 0.758416
v 0.335496 0.687963 0.799980
v 0.644874 0.318955 0.776012
v 0.630287 0.498902 0.742308
v 0.645421 0.466627 0.598386
v 0.697684 0.304957 0.626434
v 0.705741 -0.331635 0.655272
v 0.699199 -0.499741 0.648757
v 0.666954 -0.528159 0.798589
v 0.702902 -0.354471 0.850086
v 0.359335 -0.738782 0.881924
v 0.524254 -0.681485 0.805531
v 0.505207 -0.764837 0.677874
v 0.361200 -0.887345 0.753785
v -0.322361 -0.757166 0.641658
v -0.481330 -0.711125 0.618431
v -0.489239 -0.626733 0.715774
v -0.314247 -0.623623 0.714684
v -0.619230 -0.724409 -0.310272
v -0.573648 -0.649477 -0.462157
v -0.676917 -0.594105 -0.472695
v -0.747909 -0.641085 -0.317953
v -0.666934 -0.611602 0.319516
v -0.655813 -0.606358 0.485649
v -0.598553 -0.717222 0.493010
v -0.625706 -0.764631 0.332028
v 0.620937 -0.740529 0.320798
v 0.606464 -0.714401 0.497765
v 0.682533 -0.616258 0.489542
v 0.723065 -0.633341 0.315989
v 0.681179 -0.598331 -0.325357
v 0.678506 -0.599546 -0.478930
v 0.595520 -0.694674 -0.478553
v 0.606853 -0.723929 -0.326964
v 0.692391 0.639229 0.306947
v 0.617442 0.593807 0.449884
v 0.589851 0.718785 0.470147
v 0.682994 0.822284 0.334005
v 0.654295 0.818800 -0.341482
v 0.598744 0.752088 -0.500674
v 0.624240 0.616151 -0.482447
v 0.645096 0.631358 -0.318998
v -0.656522 0.785892 0.319536
v -0.610256 0.722639 0.470753
v -0.678988 0.618173 0.457776
v -0.763337 0.667408 0.315856
v -0.911659 0.763797 -0.369924
v -0.879723 0.741330 -0.575210
v -0.750492 0.883241 -0.578383
v -0.786081 0.937096 -0.376205
v -0.326058 -0.322526 -0.872628
v -0.475531 -0.322785 -0.795138
v -0.482509 -0.484792 -0.759268
v -0.317201 -0.462079 -0.753744
v 0.314625 -0.324853 -0.890519
v 0.317159 -0.514627 -0.842064
v 0.472926 -0.488524 -0.743425
v 0.471514 -0.310905 -0.778949
v 0.347862 0.358992 -0.972392
v 0.504723 0.347775 -0.859461
v 0.523198 0.540625 -0.861119
v 0.361026 0.571203 -0.967652
v -0.316679 0.339194 -0.900008
v -0.328243 0.533966 -0.868556
v -0.483358 0.514750 -0.761630
v -0.424209 0.328571 -0.714431
v -0.333617 -0.347616 0.927400
v -0.318404 -0.494415 0.810295
v -0.505796 -0.511485 0.816434
v -0.535472 -0.350420 0.913322
v -0.303888 0.300876 0.828142
v -0.453012 0.294023 0.731761
v -0.462837 0.471943 0.703089
v -0.297993 0.465639 0.730430
v 0.335527 0.319073 0.891391
v 0.336248 0.522878 0.873360
v 0.514653 0.514786 0.833220
v 0.517003 0.322445 0.863305
v 0.371123 -0.376440 1.052720
v 0.589253 -0.372097 1.009830
v 0.562729 -0.562758 0.930985
v 0.371555 -0.589562 1.014793
v -0.317955 -0.900486 -0.324448
v -0.311343 -0.827237 -0.496726
v -0.449691 -0.723854 -0.465646
v -0.465930 -0.792782 -0.306715
v -0.347868 -0.976045 0.353163
v -0.520026 -0.890669 0.343765
v -0.488025 -0.797870 0.499868
v -0.333622 -0.876125 0.522774
v 0.360516 -1.017723 0.360462
v 0.362438 -0.981224 0.575123
v 0.507813 -0.839065 0.526141
v 0.517847 -0.885774 0.338468
v 0.356003 -0.996598 -0.356495
v 0.509627 -0.868057 -0.338283
v 0.511854 -0.838320 -0.511301
v 0.364780 -0.977548 -0.565758
v 0.972492 -0.353774 -0.353711
v 0.995181 -0.372966 -0.577390
v 0.826791 -0.511522 -0.512552
v 0.815271 -0.490226 -0.335309
v 0.896557 -0.336389 0.323710
v 0.839528 -0.513376 0.322800
v 0.764665 -0.497158 0.494221
v 0.781108 -0.326381 0.485297
v 0.780789 0.289663 0.293149
v 0.724558 0.290725 0.456711
v 0.673015 0.451774 0.448358
v 0.720953 0.459310 0.294257
v 0.918918 0.324705 -0.335738
v 0.717060 0.445400 -0.313127
v 0.694369 0.460137 -0.477469
v 0.837418 0.318542 -0.508843
v 0.379535 1.089290 -0.384019
v 0.378263 1.035696 -0.599606
v 0.531759 0.893542 -0.541691
v 0.578653 0.992870 -0.369444
v 0.344757 0.960313 0.334776
v 0.552569 0.944992 0.347176
v 0.498532 0.820392 0.494164
v 0.331745 0.876452 0.508756
v -0.333984 0.896267 0.316369
v -0.327831 0.839801 0.486045
v -0.499945 0.808880 0.486236
v -0.519953 0.875773 0.324614
v -0.372861 1.055036 -0.372186
v -0.614317 1.082501 -0.389500
v -0.570276 0.953345 -0.573552
v -0.350604 0.896664 -0.520111
v -0.901215 0.355610 -0.337513
v -0.841865 0.353778 -0.504607
v -0.920629 0.553935 -0.558915
v -0.942967 0.561930 -0.358242
v -0.787182 0.320821 0.291106
v -0.811599 0.510399 0.306689
v -0.735860 0.485703 0.456003
v -0.748152 0.311518 0.452351
v -0.905537 -0.324918 0.331772
v -0.818189 -0.320356 0.499830
v -0.716454 -0.467039 0.481743
v -0.727454 -0.446697 0.311780
v -0.890798 -0.321648 -0.323643
v -0.843514 -0.509235 -0.323198
v -0.722656 -0.478466 -0.463474
v -0.694861 -0.300987 -0.423656
f 1 2 3 4
f 5 6 7 8
f 9 10 11 12
f 13 14 15 16
f 17 18 19 20
f 21 22 23 24
f 25 26 27 28
f 29 30 31 32
f 33 34 35 36
f 37 38 39 40
f 41 42 43 44
f 45 46 47 48
f 49 50 51 52
f 53 54 55 56
f 57 58 59 60
f 61 62 63 64
f 65 66 67 68
f 69 70 71 72
f 73 74 75
f 76 77 78
f 79 80 81
f 82 83 84
f 85 86 87
f 88 89 90
f 91 92 93
f 94 95 96
f 97 98 99 100
f 101 102 103 104
f 105 106 107 108
f 109 110 111 112
f 113 114 115 116
f 117 118 119 120
f 121 122 123 124
f 125 126 127 128
f 129 130 131 132
f 133 134 135 136
f 137 138 139 140
f 141 142 143 144
f 145 146 147 148
f 149 150 151 152
f 153 154 155 156
f 157 158 159 160
f 161 162 163 164
f 165 166 167 168
f 169 170 171 172
f 173 174 175 176
f 177 178 179 180
f 181 182 183 184
f 185 186 187 188
f 189 190 191 192
f 193 194 195 196
f 197 198 199 200
f 201 202 203 204
f 205 206 207 208
f 209 210 211 212
f 213 214 215 216
f 217 218 219 220
f 221 222 223 224
f 225 226 227 228
f 229 230 231 232
f 233 234 235 236
f 237 238 239 240
f 241 242 243 244
f 245 246 247 248
f 249 250 251 252
f 253 254 255 256
f 257 258 259 260
f 261 262 263 264
f 265 266 267 268
f 269 270 271 272
f 273 274 275 276
f 277 278 279 280
f 281 282 283 284
f 285 286 287 288
f 289 290 291 292
f 293 294 295 296
f 297 298 299 300
f 301 302 303 304
f 305 306 307 308
f 309 310 311 312
f 313 314 315 316
f 317 318 319 320
f 321 322 323 324
f 325 326 327 328
f 329 330 331 332
f 333 334 335 336
f 337 338 339 340
f 341 342 343 344
f 345 346 347 348
f 349 350 351 352
f 353 354 355 356
f 357 358 359 360
f 361 362 363 364
f 365 366 367 368
f 369 370 371 372
f 373 374 375 376
f 377 378 379 380
f 381 382 383 384
f 1 97 100 2
f 2 101 104 3
f 3 105 108 4
f 4 109 112 1
f 5 113 116 6
f 6 117 120 7
f 7 121 124 8
f 8 125 128 5
f 9 129 132 10
f 10 133 136 11
f 11 137 140 12
f 12 141 144 9
f 13 145 148 14
f 14 149 152 15
f 15 153 156 16
f 16 157 160 13
f 17 161 164 18
f 18 165 168 19
f 19 169 172 20
f 20 173 176 17
f 21 177 180 22
f 22 181 184 23
f 23 185 188 24
f 24 189 192 21
f 25 193 196 26
f 26 143 142 27
f 27 197 200 28
f 28 99 98 25
f 29 201 204 30
f 30 159 158 31
f 31 205 208 32
f 32 103 102 29
f 33 209 212 34
f 34 175 174 35
f 35 213 216 36
f 36 107 106 33
f 37 217 220 38
f 38 191 190 39
f 39 221 224 40
f 40 111 110 37
f 41 225 228 42
f 42 183 182 43
f 43 229 232 44
f 44 115 114 41
f 45 233 236 46
f 46 167 166 47
f 47 237 240 48
f 48 119 118 45
f 49 241 244 50
f 50 151 150 51
f 51 245 248 52
f 52 123 122 49
f 53 249 252 54
f 54 135 134 55
f 55 253 256 56
f 56 127 126 53
f 57 257 260 58
f 58 187 186 59
f 59 261 264 60
f 60 131 130 57
f 61 265 268 62
f 62 147 146 63
f 63 269 272 64
f 64 139 138 61
f 65 273 276 66
f 66 163 162 67
f 67 277 280 68
f 68 155 154 65
f 69 281 284 70
f 70 179 178 71
f 71 285 288 72
f 72 171 170 69
f 73 223 222 74
f 74 259 258 75
f 75 195 194 73
f 76 199 198 77
f 77 271 270 78
f 78 203 202 76
f 79 207 206 80
f 80 279 278 81
f 81 211 210 79
f 82 215 214 83
f 83 287 286 84
f 84 219 218 82
f 85 255 254 86
f 86 263 262 87
f 87 227 226 85
f 88 231 230 89
f 89 283 282 90
f 90 235 234 88
f 91 239 238 92
f 92 275 274 93
f 93 243 242 91
f 94 247 246 95
f 95 267 266 96
f 96 251 250 94
f 97 289 292 98
f 99 294 293 100
f 101 293 296 102
f 103 298 297 104
f 105 297 300 106
f 107 302 301 108
f 109 301 304 110
f 111 290 289 112
f 113 305 308 114
f 115 310 309 116
f 117 309 312 118
f 119 314 313 120
f 121 313 316 122
f 123 318 317 124
f 125 317 320 126
f 127 306 305 128
f 129 321 324 130
f 131 326 325 132
f 133 325 328 134
f 135 330 329 136
f 137 329 332 138
f 139 334 333 140
f 141 333 336 142
f 143 322 321 144
f 145 337 340 146
f 147 342 341 148
f 149 341 344 150
f 151 346 345 152
f 153 345 348 154
f 155 350 349 156
f 157 349 352 158
f 159 338 337 160
f 161 353 356 162
f 163 358 357 164
f 165 357 360 166
f 167 362 361 168
f 169 361 364 170
f 171 366 365 172
f 173 365 368 174
f 175 354 353 176
f 177 369 372 178
f 179 374 373 180
f 181 373 376 182
f 183 378 377 184
f 185 377 380 186
f 187 382 381 188
f 189 381 384 190
f 191 370 369 192
f 193 292 291 194
f 195 323 322 196
f 197 336 335 198
f 199 295 294 200
f 201 296 295 202
f 203 339 338 204
f 205 352 351 206
f 207 299 298 208
f 209 300 299 210
f 211 355 354 212
f 213 368 367 214
f 215 303 302 216
f 217 304 303 218
f 219 371 370 220
f 221 384 383 222
f 223 291 290 224
f 225 308 307 226
f 227 379 378 228
f 229 376 375 230
f 231 311 310 232
f 233 312 311 234
f 235 363 362 236
f 237 360 359 238
f 239 315 314 240
f 241 316 315 242
f 243 347 346 244
f 245 344 343 246
f 247 319 318 248
f 249 320 319 250
f 251 331 330 252
f 253 328 327 254
f 255 307 306 256
f 257 324 323 258
f 259 383 382 260
f 261 380 379 262
f 263 327 326 264
f 265 332 331 266
f 267 343 342 268
f 269 340 339 270
f 271 335 334 272
f 273 348 347 274
f 275 359 358 276
f 277 356 355 278
f 279 351 350 280
f 281 364 363 282
f 283 375 374 284
f 285 372 371 286
f 287 367 366 288
f 1 112 289 97
f 2 100 293 101
f 3 104 297 105
f 4 108 301 109
f 5 128 305 113
f 6 116 309 117
f 7 120 313 121
f 8 124 317 125
f 9 144 321 129
f 10 132 325 133
f 11 136 329 137
f 12 140 333 141
f 13 160 337 145
f 14 148 341 149
f 15 152 345 153
f 16 156 349 157
f 17 176 353 161
f 18 164 357 165
f 19 168 361 169
f 20 172 365 173
f 21 192 369 177
f 22 180 373 181
f 23 184 377 185
f 24 188 381 189
f 25 98 292 193
f 26 196 322 143
f 27 142 336 197
f 28 200 294 99
f 29 102 296 201
f 30 204 338 159
f 31 158 352 205
f 32 208 298 103
f 33 106 300 209
f 34 212 354 175
f 35 174 368 213
f 36 216 302 107
f 37 110 304 217
f 38 220 370 191
f 39 190 384 221
f 40 224 290 111
f 41 114 308 225
f 42 228 378 183
f 43 182 376 229
f 44 232 310 115
f 45 118 312 233
f 46 236 362 167
f 47 166 360 237
f 48 240 314 119
f 49 122 316 241
f 50 244 346 151
f 51 150 344 245
f 52 248 318 123
f 53 126 320 249
f 54 252 330 135
f 55 134 328 253
f 56 256 306 127
f 57 130 324 257
f 58 260 382 187
f 59 186 380 261
f 60 264 326 131
f 61 138 332 265
f 62 268 342 147
f 63 146 340 269
f 64 272 334 139
f 65 154 348 273
f 66 276 358 163
f 67 162 356 277
f 68 280 350 155
f 69 170 364 281
f 70 284 374 179
f 71 178 372 285
f 72 288 366 171
f 73 194 291 223
f 74 222 383 259
f 75 258 323 195
f 76 202 295 199
f 77 198 335 271
f 78 270 339 203
f 79 210 299 207
f 80 206 351 279
f 81 278 355 211
f 82 218 303 215
f 83 214 367 287
f 84 286 371 219
f 85 226 307 255
f 86 254 327 263
f 87 262 379 227
f 88 234 311 231
f 89 230 375 283
f 90 282 363 235
f 91 242 315 239
f 92 238 359 275
f 93 274 347 243
f 94 250 319 247
f 95 246 343 267
f 96 266 331 251
